<svg xmlns="http://www.w3.org/2000/svg">
 <path id="icon-watchlist" d="M17 3c1.05 0 1.918.82 1.994 1.851L19 5v16l-7-3-7 3V5c0-1.05.82-1.918 1.851-1.994L7 3h10zm-4 4h-2v3H8v2h3v3h2v-3h3v-2h-3V7z" />
 <path id="icon-user" d="M411.7 73.56A238.64 238.64 0 00238.94.01C107.14-.16.17 106.55 0 238.35a238.65 238.65 0 0073.55 172.63c.14.13.19.34.32.46 1.39 1.33 2.89 2.46 4.29 3.74 3.84 3.4 7.68 6.94 11.72 10.24 2.17 1.7 4.42 3.4 6.64 4.98 3.82 2.85 7.65 5.7 11.64 8.33 2.71 1.7 5.51 3.41 8.3 5.12 3.68 2.22 7.35 4.45 11.16 6.48 3.22 1.7 6.52 3.18 9.8 4.73 3.58 1.7 7.11 3.41 10.78 4.95 3.67 1.53 7.35 2.73 11.07 4.06s6.93 2.56 10.5 3.65c4.03 1.21 8.16 2.15 12.25 3.16 3.42.84 6.73 1.8 10.24 2.47 4.71.94 9.5 1.54 14.27 2.19 2.96.4 5.84.99 8.83 1.28 7.81.77 15.7 1.2 23.65 1.2s15.84-.43 23.65-1.2c3-.3 5.87-.87 8.83-1.28 4.78-.65 9.55-1.25 14.26-2.19 3.42-.68 6.83-1.7 10.24-2.47 4.1-1 8.23-1.95 12.26-3.16 3.57-1.09 7.01-2.42 10.5-3.65 3.48-1.23 7.44-2.56 11.07-4.06s7.2-3.26 10.79-4.95c3.27-1.55 6.57-3.02 9.8-4.73 3.8-2.03 7.47-4.26 11.15-6.48 2.79-1.71 5.59-3.26 8.3-5.12 4-2.63 7.82-5.48 11.64-8.33 2.22-1.7 4.47-3.24 6.64-4.98 4.04-3.25 7.88-6.7 11.72-10.24 1.4-1.28 2.9-2.41 4.29-3.74.13-.12.18-.33.32-.46 95.17-91.18 98.41-242.25 7.23-337.42zm-38.36 319.55c-3.1 2.73-6.31 5.32-9.55 7.83a203 203 0 01-22.3 15.02c-3 1.7-6.05 3.41-9.14 5.12-2.73 1.4-5.51 2.71-8.31 4.01s-5.89 2.68-8.91 3.9a173.64 173.64 0 01-9.39 3.4c-2.88 1-5.77 2.02-8.69 2.89-3.4 1.02-6.98 1.86-10.5 2.71-2.77.65-5.5 1.39-8.3 1.93-4.05.79-8.18 1.33-12.32 1.9-2.36.3-4.7.73-7.07.97-6.55.63-13.2 1-19.9 1s-13.35-.37-19.9-1c-2.37-.24-4.71-.67-7.07-.97-4.14-.57-8.27-1.11-12.32-1.9-2.8-.54-5.53-1.28-8.3-1.93-3.53-.85-7.04-1.7-10.5-2.71-2.92-.87-5.8-1.9-8.7-2.88-3.15-1.1-6.3-2.2-9.38-3.42-3.07-1.21-5.97-2.54-8.9-3.89s-5.59-2.61-8.32-4.01c-3.09-1.6-6.14-3.3-9.15-5.12a210.8 210.8 0 01-16.5-10.7 207.48 207.48 0 01-15.34-12.15c-.76-.57-1.44-1.28-2.17-1.93a136.93 136.93 0 0193.06-127.92 101.2 101.2 0 0086.94 0c55 18.6 92.3 69.86 93.07 127.92-.72.65-1.4 1.3-2.14 1.93zM179.43 136.85a68.27 68.27 0 1192.96 92.96c-.08 0-.18 0-.29.1a72.3 72.3 0 01-14.26 6.05c-.9.25-1.71.6-2.65.82-1.7.44-3.5.75-5.26 1.05-3.3.58-6.66.92-10.01 1.01h-1.95c-3.36-.1-6.7-.43-10.02-1-1.7-.31-3.51-.62-5.25-1.06-.9-.23-1.71-.57-2.65-.82a72.25 72.25 0 01-14.27-6.05l-.3-.1a68.27 68.27 0 01-26.05-92.96zm226.32 220.49a171.52 171.52 0 00-91.37-117.64c38.24-41.66 35.47-106.44-6.19-144.69-41.66-38.24-106.44-35.47-144.68 6.19a102.4 102.4 0 000 138.5 171.52 171.52 0 00-91.38 117.64C6.7 265.15 28.37 137.37 120.55 71.93s219.96-43.77 285.4 48.41a204.7 204.7 0 0137.8 118.6c0 42.46-13.29 83.86-38 118.4z" />
 <path id="icon-arrow" d="M36.07 20.18l-29-20A1 1 0 005.5 1v40a1 1 0 001.57.82l29-20a1 1 0 000-1.64z" />
 <path id="icon-magnifying-glass" d="M0.3 1.9c-0.4-0.4-0.4-1.1 0-1.6 0.4-0.4 1.1-0.4 1.6 0l9.5 9.5 9.5-9.5c0.4-0.4 1.1-0.4 1.6 0 0.4 0.4 0.4 1.2 0 1.6l-9.5 9.5 9.5 9.5c0.4 0.4 0.4 1.1 0 1.6 -0.4 0.4-1.1 0.4-1.6 0l-9.5-9.5 -9.5 9.5c-0.4 0.4-1.1 0.4-1.6 0 -0.4-0.4-0.4-1.2 0-1.6l9.5-9.5L0.3 1.9z" />
 <path id="icon-cross" d="m93.148 80.832c16.352-23.09 10.883-55.062-12.207-71.41s-55.062-10.883-71.41 12.211c-16.348 23.09-10.883 55.059 12.211 71.406 16.48 11.668 38.27 12.566 55.652 2.3008l37.77 37.543c4.0781 4.293 10.863 4.4648 15.156 0.38672 4.293-4.0742 4.4648-10.859 0.39063-15.152-0.12891-0.13672-0.25391-0.26172-0.39063-0.39063zm-41.84 3.5c-18.246 0.003907-33.039-14.777-33.051-33.023-0.003906-18.246 14.777-33.039 33.027-33.047 18.223-0.007813 33.008 14.75 33.043 32.973 0.03125 18.25-14.742 33.066-32.996 33.098h-0.023437z" />
 <path id="icon-section-arrow" d="M5.622.631A2.153 2.153 0 0 0 5 2.147c0 .568.224 1.113.622 1.515l8.249 8.34-8.25 8.34a2.16 2.16 0 0 0-.548 2.07c.196.74.768 1.317 1.499 1.515a2.104 2.104 0 0 0 2.048-.555l9.758-9.866a2.153 2.153 0 0 0 0-3.03L8.62.61C7.812-.207 6.45-.207 5.622.63z"></path>
 <path id="icon-star" d="M12 20.1l5.82 3.682c1.066.675 2.37-.322 2.09-1.584l-1.543-6.926 5.146-4.667c.94-.85.435-2.465-.799-2.567l-6.773-.602L13.29.89a1.38 1.38 0 0 0-2.581 0l-2.65 6.53-6.774.602C.052 8.126-.453 9.74.486 10.59l5.147 4.666-1.542 6.926c-.28 1.262 1.023 2.26 2.09 1.585L12 20.099z"></path>
 <path id="icon-cross-watchlist" d="M18 13h-5v5c0 .55-.45 1-1 1s-1-.45-1-1v-5H6c-.55 0-1-.45-1-1s.45-1 1-1h5V6c0-.55.45-1 1-1s1 .45 1 1v5h5c.55 0 1 .45 1 1s-.45 1-1 1z"></path>
 <path id="icon-checkmark-watchlist" d="M9 16.2l-3.5-3.5a.984.984 0 0 0-1.4 0 .984.984 0 0 0 0 1.4l4.19 4.19c.39.39 1.02.39 1.41 0L20.3 7.7a.984.984 0 0 0 0-1.4.984.984 0 0 0-1.4 0L9 16.2z"></path>
 <path id="icon-no-searchresults" d="M1.88.02v15.96H14.1V4.4a.5.5 0 000-.25v-.1h-.03a.5.5 0 00-.06-.09l-.03-.03a.5.5 0 00-.03 0V3.9a.5.5 0 00-.07-.06h-.06a.5.5 0 00-.03-.03l-1.72-1.75L10.29.24a.5.5 0 00-.03-.04l-.03-.03a.5.5 0 00-.13-.1l-.03-.05h-.16a.5.5 0 00-.06 0H1.88zm1 1h6.47v3.75h3.75v10.21H2.88V1.02zm7.47.71l1.03 1 1.03 1.04h-2.06V1.73zM6.13 6.58c-.78 0-1.43.65-1.43 1.44 0 .78.65 1.43 1.43 1.43.79 0 1.44-.65 1.44-1.43 0-.8-.65-1.44-1.44-1.44zm4.16 0c-.79 0-1.44.65-1.44 1.44 0 .78.65 1.43 1.44 1.43.79 0 1.44-.65 1.44-1.43 0-.8-.65-1.44-1.44-1.44zm-4.16 1a.435.435 0 110 .87.43.43 0 01-.43-.43c0-.25.19-.44.43-.44zm4.16 0a.435.435 0 110 .87.43.43 0 01-.44-.43c0-.25.2-.44.44-.44zM7.98 10.3c-.79 0-1.44.65-1.44 1.43 0 .8.65 1.44 1.44 1.44.78 0 1.43-.65 1.43-1.44 0-.78-.65-1.43-1.43-1.43zm0 1c.25 0 .43.18.43.43s-.18.44-.43.44a.43.43 0 01-.44-.44c0-.25.19-.43.44-.43z"></path>
</svg>

